<svg xmlns="http://www.w3.org/2000/svg" viewBox="0 0 240 240"><defs><filter id="s"><feDropShadow dx="0" dy="5" stdDeviation="3" flood-color="#173d79" flood-opacity=".2"/></filter></defs><g filter="url(#s)"><g transform="translate(65 62) scale(0.68)"><path d="M-32 6q18-31 43-10 17-6 28 9-12 6-25 5-15 24-39 10-13-8-7-14Z" fill="#55bde8" stroke="#173d79" stroke-width="5"/><path d="m37 2 16 8-16 7" fill="#ffc24b" stroke="#173d79" stroke-width="4"/><circle cx="23" cy="-2" r="3" fill="#173d79"/><path d="M-20 0q13-12 25 3-13 15-25-3Z" fill="#9be2f2"/></g><g transform="translate(120 62) scale(0.68)"><path d="M-32 6q18-31 43-10 17-6 28 9-12 6-25 5-15 24-39 10-13-8-7-14Z" fill="#55bde8" stroke="#173d79" stroke-width="5"/><path d="m37 2 16 8-16 7" fill="#ffc24b" stroke="#173d79" stroke-width="4"/><circle cx="23" cy="-2" r="3" fill="#173d79"/><path d="M-20 0q13-12 25 3-13 15-25-3Z" fill="#9be2f2"/></g><g transform="translate(175 62) scale(0.68)"><path d="M-32 6q18-31 43-10 17-6 28 9-12 6-25 5-15 24-39 10-13-8-7-14Z" fill="#55bde8" stroke="#173d79" stroke-width="5"/><path d="m37 2 16 8-16 7" fill="#ffc24b" stroke="#173d79" stroke-width="4"/><circle cx="23" cy="-2" r="3" fill="#173d79"/><path d="M-20 0q13-12 25 3-13 15-25-3Z" fill="#9be2f2"/></g><g transform="translate(65 166) scale(0.68)"><path d="M-32 6q18-31 43-10 17-6 28 9-12 6-25 5-15 24-39 10-13-8-7-14Z" fill="#55bde8" stroke="#173d79" stroke-width="5"/><path d="m37 2 16 8-16 7" fill="#ffc24b" stroke="#173d79" stroke-width="4"/><circle cx="23" cy="-2" r="3" fill="#173d79"/><path d="M-20 0q13-12 25 3-13 15-25-3Z" fill="#9be2f2"/></g><g transform="translate(120 166) scale(0.68)"><path d="M-32 6q18-31 43-10 17-6 28 9-12 6-25 5-15 24-39 10-13-8-7-14Z" fill="#55bde8" stroke="#173d79" stroke-width="5"/><path d="m37 2 16 8-16 7" fill="#ffc24b" stroke="#173d79" stroke-width="4"/><circle cx="23" cy="-2" r="3" fill="#173d79"/><path d="M-20 0q13-12 25 3-13 15-25-3Z" fill="#9be2f2"/></g><g transform="translate(175 166) scale(0.68)"><path d="M-32 6q18-31 43-10 17-6 28 9-12 6-25 5-15 24-39 10-13-8-7-14Z" fill="#55bde8" stroke="#173d79" stroke-width="5"/><path d="m37 2 16 8-16 7" fill="#ffc24b" stroke="#173d79" stroke-width="4"/><circle cx="23" cy="-2" r="3" fill="#173d79"/><path d="M-20 0q13-12 25 3-13 15-25-3Z" fill="#9be2f2"/></g></g></svg>