<svg xmlns="http://www.w3.org/2000/svg" viewBox="0 0 88 68">
  <defs><path id="star" d="m0-3.8 1.2 2.4 2.7.4-2 1.9.5 2.7L0 2.3l-2.4 1.3.5-2.7-2-1.9 2.7-.4Z"/></defs>
  <g fill="#8295cf" opacity=".7"><rect x="2" y="8" width="17" height="26" rx="5"/><rect x="24" y="8" width="17" height="26" rx="5"/><rect x="47" y="8" width="17" height="26" rx="5"/><rect x="69" y="8" width="17" height="26" rx="5"/><rect x="2" y="40" width="17" height="26" rx="5"/><rect x="24" y="40" width="17" height="26" rx="5"/><rect x="47" y="40" width="17" height="26" rx="5"/><rect x="69" y="40" width="17" height="26" rx="5"/></g>
  <g fill="#fffaf0" stroke="#213b78" stroke-width="2.2"><rect x="2" y="4" width="17" height="26" rx="5"/><rect x="24" y="4" width="17" height="26" rx="5"/><rect x="47" y="4" width="17" height="26" rx="5"/><rect x="69" y="4" width="17" height="26" rx="5"/><rect x="2" y="36" width="17" height="26" rx="5"/><rect x="24" y="36" width="17" height="26" rx="5"/><rect x="47" y="36" width="17" height="26" rx="5"/><rect x="69" y="36" width="17" height="26" rx="5"/></g>
  <g fill="#ffc94f"><use href="#star" transform="translate(10.5 17)"/><use href="#star" transform="translate(32.5 17)"/><use href="#star" transform="translate(55.5 17)"/><use href="#star" transform="translate(77.5 17)"/><use href="#star" transform="translate(10.5 49)"/><use href="#star" transform="translate(32.5 49)"/><use href="#star" transform="translate(55.5 49)"/><use href="#star" transform="translate(77.5 49)"/></g>
</svg>
